<svg width="299" height="299" viewBox="0 0 299 299" fill="none" xmlns="http://www.w3.org/2000/svg">
<circle cx="149.5" cy="149.5" r="149.5" fill="#FFBD12"/>
<path d="M130.31 131.934H129.567V144.018H144.176C145.538 144.018 146.033 145.887 144.795 146.51L141.948 147.88C138.11 149.749 134.271 150.746 130.31 150.746H129.567V162.83H143.805C145.167 162.83 145.662 164.699 144.424 165.322L141.452 166.692C137.862 168.437 134.024 169.309 130.31 169.309H129.567V181.393H143.805L145.414 179.4C152.348 171.302 160.395 167.066 168.814 167.066H169.433V154.982H155.195C153.833 154.982 153.338 153.113 154.576 152.49L157.548 151.12C161.138 149.375 164.976 148.503 168.691 148.503H169.31V136.419H154.824C153.462 136.419 152.967 134.55 154.205 133.927L157.052 132.557C160.89 130.688 164.729 129.691 168.691 129.691H169.31V117.607H155.071L153.462 119.6C146.776 127.698 138.605 131.934 130.31 131.934Z" fill="#201B21"/>
<path d="M183.867 59.8H115.133L59.8 115.133V183.867L115.133 239.2H183.867L239.2 183.867V115.133L183.867 59.8ZM124.643 184.732L89.1957 149.284L124.643 113.836C138.044 100.435 160.091 100.435 173.492 113.836L208.94 149.284L173.492 184.732C160.091 198.132 138.477 198.132 124.643 184.732Z" fill="#201B21"/>
</svg>
